# xmcd CD database file
#
# Track frame offsets:
#	150
#	16178
#	31753
#	49198
#	65425
#	77910
#	92522
#	107883
#	122594
#	138503
#	154648
#	170585
#	186206
#	200349
#	222130
#	237421
#	251862
#	267687
#	281866
#	296981
#
# Disc length: 4161 seconds
#
# Revision: 1
# Processed by: cddbd v1.5.1PL0 Copyright (c) Steve Scherf et al.
# Submitted via: Feurio! 1.68 - http://www.feurio.com
#
DISCID=2f103f14
DTITLE=Various Artist - Deutschland trinkt CD1
DYEAR=1900
DGENRE=Schlager - NDW - Stimmung
TTITLE0=Haiducii - Dragostea Din Tei
TTITLE1=Kate Ryan - The Promise You Made
TTITLE2=Florida Inc. - P**k It!
TTITLE3=Mickie Krause - Wirft der Arsch auch Falten
TTITLE4=Jürgen - Heute fährt die 18 bis nach Istanbul
TTITLE5=Helmut aus Mallorca - Holzmichel
TTITLE6=Die Luderz feat. DJ Almklausi - Hey kleines Luder
TTITLE7=Tres Hombres - Ein Rudi Völler
TTITLE8=JoJo's - Die Besten
TTITLE9=Lollies feat. Kiz - Die Sennerin vom Königsee
TTITLE10=Ulf - Du bist das Grösste
TTITLE11=Soundconvoy - Butterfly 2004
TTITLE12=Mille - Hey Amigo Charly
TTITLE13=Die Inselfeger - Der längste Tresen-Mix der Welt Vol.5
TTITLE14=Heinz and Erhardt - Immer wenn ich traurig bin
TTITLE15=Chris K. - Rut sin de Ruse
TTITLE16=HOI! - Zicke Zacke
TTITLE17=Mikis Mavropoulos - Zorbas Dance
TTITLE18=Public Flavour - F.U. Right Back
TTITLE19=King Africa - Golosa
EXTD=
EXTT0=
EXTT1=
EXTT2=
EXTT3=
EXTT4=
EXTT5=
EXTT6=
EXTT7=
EXTT8=
EXTT9=
EXTT10=
EXTT11=
EXTT12=
EXTT13=
EXTT14=
EXTT15=
EXTT16=
EXTT17=
EXTT18=
EXTT19=
PLAYORDER=
